<svg width="34" height="43" viewBox="0 0 34 43" fill="none" xmlns="http://www.w3.org/2000/svg">
<path d="M33.9769 36.7732L31.5071 11.855C31.4374 11.1685 30.8106 10.6442 30.0589 10.6442H25.7056V7.98318C25.7056 5.84368 24.803 3.83459 23.1632 2.33109C21.5235 0.827589 19.3323 0 16.9989 0C12.1987 0 8.29228 3.58178 8.29228 7.98318V10.6442H3.93895C3.18728 10.6442 2.5604 11.1685 2.49365 11.855L0.0238639 36.7732C-0.124149 38.258 0.421468 39.7429 1.5185 40.8446C2.61554 41.9463 4.17693 42.5769 5.80508 42.5769H28.1957C29.8238 42.5769 31.3852 41.9463 32.4822 40.8446C33.5793 39.7429 34.122 38.258 33.9769 36.7732ZM11.1945 7.98318C11.1945 5.04803 13.7978 2.66106 16.9989 2.66106C18.5574 2.66106 20.0172 3.2119 21.1114 4.21246C22.2055 5.21301 22.8034 6.55419 22.8034 7.98318V10.6442H11.1945V7.98318ZM30.3375 39.051C29.7803 39.6072 29.0199 39.9159 28.1928 39.9159H5.80508C4.98085 39.9159 4.21757 39.6072 3.66324 39.0484C3.10602 38.4895 2.84191 37.7684 2.91737 37.0127L5.26526 13.3053H8.29228V17.2969C8.29228 18.0313 8.94237 18.6274 9.74338 18.6274C10.5444 18.6274 11.1945 18.0313 11.1945 17.2969V13.3053H22.8034V17.2969C22.8034 18.0313 23.4534 18.6274 24.2545 18.6274C25.0555 18.6274 25.7056 18.0313 25.7056 17.2969V13.3053H28.7326L31.0834 37.0153C31.1588 37.7684 30.8947 38.4922 30.3375 39.051Z" fill="#22AA5F"/>
</svg>
